<svg xmlns="http://www.w3.org/2000/svg" xmlns:xlink="http://www.w3.org/1999/xlink" viewBox="0 0 67 66" fill="#fff" fill-rule="evenodd" stroke="#000" stroke-linecap="round" stroke-linejoin="round"><use xlink:href="#A" x="1" y="1"/><symbol id="A" overflow="visible"><g stroke="none" fill-rule="nonzero"><path d="M64 33.406a12.59 12.59 0 0 0-8.332-11.874c.216-1.133.325-2.283.324-3.436 0-10-8.114-18.096-18.07-18.096-5.84 0-11.252 2.786-14.66 7.492a9.56 9.56 0 0 0-5.87-2c-5.3 0-9.6 4.3-9.6 9.6 0 1.164.216 2.3.596 3.354A12.72 12.72 0 0 0 0 30.352a12.62 12.62 0 0 0 8.358 11.902 18.05 18.05 0 0 0-.324 3.436c.01 9.96 8.082 18.032 18.042 18.042 5.84 0 11.252-2.814 14.634-7.52 1.68 1.326 3.732 2.056 5.87 2.056 5.3 0 9.6-4.3 9.6-9.6 0-1.164-.216-2.3-.596-3.354A12.74 12.74 0 0 0 64 33.408"/><path d="M25.156 27.456l14.012 6.384 14.12-12.388c.209-1.023.309-2.066.298-3.11-.012-8.72-7.078-15.786-15.798-15.798a15.78 15.78 0 0 0-13.01 6.87l-2.354 12.2z" fill="#fed10a"/><path d="M10.66 42.28a15.32 15.32 0 0 0-.3 3.164c0 8.74 7.114 15.824 15.852 15.824a15.84 15.84 0 0 0 13.092-6.924l2.326-12.146-3.11-5.95-14.066-6.41z" fill="#24bbb1"/><path d="M10.576 18.046l9.6 2.272 2.11-10.9c-1.3-1-2.92-1.54-4.6-1.54a7.58 7.58 0 0 0-7.57 7.568 7.54 7.54 0 0 0 .46 2.596" fill="#ef5098"/><path d="M9.74 20.342c-4.274 1.406-7.276 5.52-7.276 10.036 0 4.41 2.732 8.332 6.816 9.9l13.47-12.172-2.46-5.274z" fill="#17a8e0"/><path d="M41.74 54.346a7.6 7.6 0 0 0 4.572 1.568 7.58 7.58 0 0 0 7.574-7.574 7.64 7.64 0 0 0-.46-2.624L43.85 43.47z" fill="#93c83e"/><path d="M43.686 40.954l10.55 2.46a10.66 10.66 0 0 0 7.276-10.062 10.58 10.58 0 0 0-6.816-9.874L40.9 35.57z" fill="#0779a1"/></g></symbol></svg>