<svg width="101" height="128" xmlns="http://www.w3.org/2000/svg" xmlns:xlink="http://www.w3.org/1999/xlink" overflow="hidden"><defs><clipPath id="clip0"><rect x="2062" y="669" width="101" height="128"/></clipPath><clipPath id="clip1"><rect x="2071" y="676" width="83" height="115"/></clipPath><clipPath id="clip2"><rect x="2071" y="676" width="83" height="115"/></clipPath><clipPath id="clip3"><rect x="2071" y="676" width="83" height="115"/></clipPath></defs><g clip-path="url(#clip0)" transform="translate(-2062 -669)"><path d="M2071.5 691.334C2071.5 683.694 2077.69 677.5 2085.33 677.5L2140.67 677.5C2148.31 677.5 2154.5 683.694 2154.5 691.334L2154.5 777.667C2154.5 785.307 2148.31 791.5 2140.67 791.5L2085.33 791.5C2077.69 791.5 2071.5 785.307 2071.5 777.667Z" stroke="#FFFFFF" stroke-width="9.16667" stroke-linecap="butt" stroke-linejoin="round" stroke-miterlimit="10" stroke-opacity="1" fill="#FFFFFF" fill-rule="evenodd" fill-opacity="1"/><g clip-path="url(#clip1)"><g clip-path="url(#clip2)"><g clip-path="url(#clip3)"><path d="M74.7144 114 7.79073 114C3.49944 114 0 110.526 0 106.209L0 7.79073C0 3.49944 3.49944 0 7.79073 0L74.7144 0C79.0057 0 82.5051 3.49944 82.5051 7.79073L82.5051 106.209C82.5051 110.526 79.0057 114 74.7144 114ZM7.79073 3.57607C5.46628 3.57607 3.57607 5.46628 3.57607 7.79073L3.57607 106.209C3.57607 108.534 5.46628 110.424 7.79073 110.424L74.7144 110.424C77.0389 110.424 78.9291 108.534 78.9291 106.209L78.9291 7.79073C78.9291 5.46628 77.0389 3.57607 74.7144 3.57607L7.79073 3.57607Z" stroke="#C00000" stroke-width="0.275018" stroke-linecap="butt" stroke-linejoin="miter" stroke-miterlimit="4" stroke-opacity="1" fill="#C00000" fill-rule="nonzero" fill-opacity="1" transform="matrix(-1.00532 0 0 1 2153.97 677)"/><path d="M1.43043 15.0195 81.1258 15.0195 81.1258 18.5956 1.43043 18.5956Z" stroke="#C00000" stroke-width="0.275018" stroke-linecap="butt" stroke-linejoin="miter" stroke-miterlimit="4" stroke-opacity="1" fill="#C00000" fill-rule="nonzero" fill-opacity="1" transform="matrix(-1.00532 0 0 1 2153.97 677)"/><path d="M3.42281 95.3535 81.1258 95.3535 81.1258 98.9295 3.42282 98.9295Z" stroke="#C00000" stroke-width="0.275018" stroke-linecap="butt" stroke-linejoin="miter" stroke-miterlimit="4" stroke-opacity="1" fill="#C00000" fill-rule="nonzero" fill-opacity="1" transform="matrix(-1.00532 0 0 1 2153.97 677)"/><path d="M41.2781 107.563C39.7966 107.563 38.5961 106.363 38.5961 104.881 38.5961 103.4 39.7966 102.199 41.2781 102.199 42.7596 102.199 43.9602 103.4 43.9602 104.881 43.9602 106.363 42.7596 107.563 41.2781 107.563L41.2781 107.563ZM41.2781 104.702C41.1759 104.702 41.0993 104.779 41.0993 104.881 41.0993 104.983 41.1759 105.06 41.2781 105.06 41.3803 105.06 41.4569 104.983 41.4569 104.881 41.4569 104.779 41.3803 104.702 41.2781 104.702Z" stroke="#C00000" stroke-width="0.275018" stroke-linecap="butt" stroke-linejoin="miter" stroke-miterlimit="4" stroke-opacity="1" fill="#C00000" fill-rule="nonzero" fill-opacity="1" transform="matrix(-1.00532 0 0 1 2153.97 677)"/><path d="M41.2781 107.027C40.0776 107.027 39.1325 106.056 39.1325 104.856 39.1325 103.655 40.1031 102.71 41.3037 102.71 42.5042 102.71 43.4493 103.681 43.4493 104.856 43.4493 106.031 42.4787 107.027 41.2781 107.027L41.2781 107.027ZM41.2781 104.728C41.2015 104.728 41.1249 104.805 41.1249 104.881 41.1249 104.958 41.2015 105.034 41.2781 105.034 41.3547 105.034 41.4314 104.958 41.4314 104.881 41.4314 104.805 41.3803 104.728 41.2781 104.728 41.2781 104.728 41.2781 104.728 41.2781 104.728Z" stroke="#C00000" stroke-width="0.275018" stroke-linecap="butt" stroke-linejoin="miter" stroke-miterlimit="4" stroke-opacity="1" fill="#C00000" fill-rule="nonzero" fill-opacity="1" transform="matrix(-1.00532 0 0 1 2153.97 677)"/><path d="M41.2781 106.337C40.4863 106.337 39.8221 105.699 39.8221 104.881 39.8221 104.064 40.4607 103.425 41.2781 103.425 42.07 103.425 42.7341 104.064 42.7341 104.881L42.7341 104.881C42.7341 105.673 42.07 106.337 41.2781 106.337ZM41.2781 104.779C41.227 104.779 41.1759 104.83 41.1759 104.881 41.1759 104.881 41.1759 104.881 41.1759 104.881 41.1759 104.932 41.227 104.983 41.2781 104.983 41.2781 104.983 41.2781 104.983 41.2781 104.983 41.3292 104.983 41.3803 104.932 41.3803 104.881 41.3803 104.83 41.3292 104.779 41.2781 104.779 41.2781 104.779 41.2781 104.779 41.2781 104.779Z" stroke="#C00000" stroke-width="0.275018" stroke-linecap="butt" stroke-linejoin="miter" stroke-miterlimit="4" stroke-opacity="1" fill="#C00000" fill-rule="nonzero" fill-opacity="1" transform="matrix(-1.00532 0 0 1 2153.97 677)"/><path d="M41.2781 105.877C40.7417 105.877 40.2819 105.443 40.2819 104.881 40.2819 104.319 40.7162 103.885 41.2781 103.885 41.8145 103.885 42.2743 104.319 42.2743 104.881 42.2743 105.443 41.8145 105.877 41.2781 105.877L41.2781 105.877ZM41.2781 104.805C41.2526 104.805 41.2015 104.83 41.2015 104.881 41.2015 104.958 41.3292 104.958 41.3292 104.881 41.3547 104.856 41.3037 104.805 41.2781 104.805Z" stroke="#C00000" stroke-width="0.275018" stroke-linecap="butt" stroke-linejoin="miter" stroke-miterlimit="4" stroke-opacity="1" fill="#C00000" fill-rule="nonzero" fill-opacity="1" transform="matrix(-1.00532 0 0 1 2153.97 677)"/><path d="M41.2781 105.418C40.9971 105.418 40.7417 105.188 40.7417 104.881 40.7417 104.575 40.9716 104.345 41.2781 104.345 41.5846 104.345 41.8145 104.575 41.8145 104.881L41.8145 104.881C41.8145 105.162 41.5591 105.418 41.2781 105.418ZM41.2781 104.83C41.2526 104.83 41.2526 104.856 41.2526 104.856 41.2526 104.881 41.3292 104.881 41.3292 104.856 41.3037 104.856 41.3037 104.856 41.2781 104.83Z" stroke="#C00000" stroke-width="0.275018" stroke-linecap="butt" stroke-linejoin="miter" stroke-miterlimit="4" stroke-opacity="1" fill="#C00000" fill-rule="nonzero" fill-opacity="1" transform="matrix(-1.00532 0 0 1 2153.97 677)"/><path d="M41.2781 105.188C41.0993 105.188 40.946 105.034 40.946 104.856 40.946 104.677 41.0993 104.524 41.2781 104.524 41.4569 104.524 41.6102 104.677 41.6102 104.856L41.6102 104.856C41.6102 105.034 41.4569 105.188 41.2781 105.188 41.2781 105.188 41.2781 105.188 41.2781 105.188ZM41.2781 104.856C41.2781 104.856 41.2526 104.856 41.2781 104.856 41.2526 104.907 41.3037 104.907 41.2781 104.856 41.3037 104.856 41.2781 104.856 41.2781 104.856Z" stroke="#C00000" stroke-width="0.275018" stroke-linecap="butt" stroke-linejoin="miter" stroke-miterlimit="4" stroke-opacity="1" fill="#C00000" fill-rule="nonzero" fill-opacity="1" transform="matrix(-1.00532 0 0 1 2153.97 677)"/><path d="M41.4058 72.3133C50.0906 72.3133 57.115 65.2889 57.115 56.6041 57.115 47.9194 50.065 40.8694 41.4058 40.8694 32.7211 40.8694 25.6966 47.8938 25.6966 56.5786 25.6966 65.2634 32.7211 72.3133 41.4058 72.3133L41.4058 72.3133ZM30.8053 53.0025C30.8053 51.9552 31.7249 51.1123 32.8743 51.1123L35.7863 51.1123 35.7863 56.0933 46.9998 56.0933 46.9998 51.1123 49.9118 51.1123C51.0357 51.1123 51.9808 51.9552 51.9808 53.0025L51.9808 59.8482C51.9808 60.8954 51.0612 61.7384 49.9118 61.7384 49.9118 61.7384 47.3064 62.0193 41.3803 62.0193 35.4542 62.0193 32.8488 61.7384 32.8488 61.7384 31.7249 61.7384 30.7798 60.8954 30.7798 59.8482L30.8053 53.0025Z" stroke="#C00000" stroke-width="0.275018" stroke-linecap="butt" stroke-linejoin="miter" stroke-miterlimit="4" stroke-opacity="1" fill="#C00000" fill-rule="nonzero" fill-opacity="1" transform="matrix(-1.00532 0 0 1 2153.97 677)"/></g></g></g></g></svg>