<svg xmlns="http://www.w3.org/2000/svg" xmlns:xlink="http://www.w3.org/1999/xlink" viewBox="0 0 377.1 66.9">
	<defs>
		<style>
			.cls-1,
			.cls-4{fill:none;}

			.cls-2{clip-path:url(#clip-path);}

			.cls-3{fill:#e7272b;}

			.cls-4{stroke:#231f20;stroke-miterlimit:10;stroke-width:3px;}

			.cls-5{fill:#fff;}

			.cls-6{fill:#e8262a;}
		</style>
		<clipPath id="clip-path" transform="translate(-1.44)"><rect class="cls-1" x="11.24" y="11.1" width="46" height="46"/></clipPath>
	</defs>
	<g class="cls-2">
		<path class="cls-3" d="M49.84,38.1a2.8,2.8,0,0,1-2.4,2.9,94.2,94.2,0,0,1-13.2.7A112.57,112.57,0,0,1,21,41a2.8,2.8,0,0,1-2.4-2.9v-9A3,3,0,0,1,21,26.2a36.79,36.79,0,0,1,4.1-.3,1,1,0,0,1,1,1.1v6.3c2.8,0,5.2-.1,8.1-.1s5.3.1,8.1.1V27a1,1,0,0,1,1-1.1,22.18,22.18,0,0,1,4.1.3,3,3,0,0,1,2.4,2.9v9Zm-15.6-27a23,23,0,1,0,23,23,23,23,0,0,0-23-23Z" transform="translate(-1.44)"/>
	</g>
	<circle class="cls-4" cx="32.8" cy="34.1" r="31.3"/>
	<path class="cls-5" d="M57.74,7.5A7.5,7.5,0,1,1,50.24,0a7.49,7.49,0,0,1,7.5,7.5Z" transform="translate(-1.44)"/>
	<path class="cls-6" d="M55,7.5a4.8,4.8,0,1,1-4.8-4.8A4.8,4.8,0,0,1,55,7.5Z" transform="translate(-1.44)"/>
	<path d="M74.64,32.3h0c0-7.4,5.5-13.5,13.1-13.5a13.65,13.65,0,0,1,10.1,4.1l-2,2.1a11.07,11.07,0,0,0-8.1-3.5c-5.7,0-10,4.7-10,10.6v.1c0,6,4.3,10.7,10,10.7,3.5,0,5.9-1.4,8.4-3.7L98,41.1a13.66,13.66,0,0,1-10.4,4.5c-7.5,0-13-5.9-13-13.3Z" transform="translate(-1.44)"/>
	<path d="M118.14,35.7h0a7.22,7.22,0,0,0-7.1-7.5,7.11,7.11,0,0,0-7,7.4v.1a7.06,7.06,0,1,0,14.1,0Zm-17.1,0h0a9.92,9.92,0,0,1,10-10.1,9.8,9.8,0,0,1,9.9,9.9v.1a10,10,0,0,1-10,10,9.8,9.8,0,0,1-9.9-9.9Z" transform="translate(-1.44)"/>
	<path d="M126,26h2.8v3.3a7.24,7.24,0,0,1,6.5-3.7c4.6,0,7.3,3.1,7.3,7.7V45.2h-2.8V34c0-3.5-1.9-5.8-5.3-5.8s-5.7,2.4-5.7,6V45.1H126V26Z" transform="translate(-1.44)"/>
	<path d="M148.74,26h2.8v3.3a7.24,7.24,0,0,1,6.5-3.7c4.6,0,7.3,3.1,7.3,7.7V45.2h-2.8V34c0-3.5-1.9-5.8-5.3-5.8s-5.7,2.4-5.7,6V45.1h-2.8V26Z" transform="translate(-1.44)"/>
	<path d="M185.34,34.5C185,31,183,28,179.24,28c-3.3,0-5.8,2.8-6.2,6.5Zm-15.2,1.2h0c0-5.6,3.9-10,9.2-10,5.7,0,8.9,4.5,8.9,10.1v.9H173c.4,4.1,3.3,6.5,6.7,6.5a7.9,7.9,0,0,0,6-2.7l1.8,1.6a10.07,10.07,0,0,1-7.9,3.6,9.62,9.62,0,0,1-9.5-10Z" transform="translate(-1.44)"/>
	<path d="M191.94,35.7h0a9.88,9.88,0,0,1,9.8-10.1,10,10,0,0,1,7.7,3.4l-1.9,2a7.64,7.64,0,0,0-5.8-2.9c-3.9,0-6.8,3.3-6.8,7.4v.1a7.11,7.11,0,0,0,7,7.4,7.89,7.89,0,0,0,5.8-2.8l1.8,1.7a9.93,9.93,0,0,1-7.8,3.7,9.77,9.77,0,0,1-9.8-9.9Z" transform="translate(-1.44)"/>
	<path d="M215.14,40.1V28.6h-2.7V26h2.7V20.2h2.8V26H224v2.5h-6.1V39.7a2.85,2.85,0,0,0,3.2,3.2,5.81,5.81,0,0,0,2.8-.7v2.4a7.42,7.42,0,0,1-3.4.8c-3.1.1-5.4-1.4-5.4-5.3Z" transform="translate(-1.44)"/>
	<polygon points="227.1 41.3 230.5 41.3 230.5 45.2 227.1 45.2 227.1 41.3"/>
	<path class="cls-6" d="M259,32.3h0c0-6-4.3-10.8-10.2-10.8s-10.1,4.7-10.1,10.6v.1c0,5.9,4.3,10.7,10.2,10.7S259,38.2,259,32.3Zm-23.3,0h0a13.19,13.19,0,0,1,13.2-13.5,13,13,0,0,1,13.2,13.3v.1a13.16,13.16,0,0,1-13.2,13.4,13,13,0,0,1-13.2-13.3Z" transform="translate(-1.44)"/>
	<polygon class="cls-6" points="266.7 19.3 269.5 19.3 285.8 40 285.8 19.3 288.6 19.3 288.6 45.2 286.3 45.2 269.6 23.9 269.6 45.2 266.7 45.2 266.7 19.3"/>
	<polygon class="cls-6" points="295.8 19.3 298.7 19.3 298.7 42.5 313.3 42.5 313.3 45.2 295.8 45.2 295.8 19.3"/>
	<polygon class="cls-6" points="318.7 19.3 321.6 19.3 321.6 45.2 318.7 45.2 318.7 19.3"/>
	<polygon class="cls-6" points="329.1 19.3 331.8 19.3 348.1 40 348.1 19.3 351 19.3 351 45.2 348.7 45.2 331.9 23.9 331.9 45.2 329.1 45.2 329.1 19.3"/>
	<polygon class="cls-6" points="358.2 19.3 376.9 19.3 376.9 21.9 361.1 21.9 361.1 30.8 375.2 30.8 375.2 33.4 361.1 33.4 361.1 42.5 377.1 42.5 377.1 45.2 358.2 45.2 358.2 19.3"/>
</svg>