<svg viewBox="0 0 600 600" xmlns="http://www.w3.org/2000/svg" xmlns:xlink="http://www.w3.org/1999/xlink" id="Expanded" overflow="hidden"><defs></defs><path d="M299.73 240.94C214.6 240.94 147.92 209.4 147.92 169.14 147.92 128.88 214.6 97.33 299.73 97.33 384.86 97.33 451.54 128.87 451.54 169.14 451.54 209.41 384.86 240.94 299.73 240.94ZM299.73 111.33C262.02 111.33 226.67 117.86 200.2 129.7 175.87 140.59 161.92 154.96 161.92 169.14 161.92 183.32 175.92 197.69 200.2 208.57 226.67 220.42 262.02 226.94 299.73 226.94 337.44 226.94 372.8 220.42 399.27 208.57 423.59 197.69 437.54 183.32 437.54 169.14 437.54 154.96 423.54 140.59 399.27 129.7 372.8 117.86 337.45 111.33 299.73 111.33Z" fill="#C00000"/><path d="M232.93 325.17C180.5 313.3 147.93 288.51 147.93 260.47L161.93 260.47C161.93 281.29 191.02 301.33 236.03 311.47Z" fill="#C00000"/><path d="M361.65 326.22 358.83 312.51C405.91 302.81 437.54 281.9 437.54 260.51L451.54 260.51C451.54 289.6 417.1 314.8 361.65 326.22Z" fill="#C00000"/><path d="M299.73 427.94C214.6 427.94 147.92 396.4 147.92 356.14L161.92 356.14C161.92 370.32 175.92 384.69 200.2 395.57 226.67 407.42 262.02 413.94 299.73 413.94 337.44 413.94 372.8 407.42 399.27 395.57 423.59 384.69 437.54 370.32 437.54 356.14L451.54 356.14C451.54 396.4 384.86 427.94 299.73 427.94Z" fill="#C00000"/><path d="M299.73 522.28C214.6 522.28 147.92 490.74 147.92 450.48L147.92 173 161.92 173 161.92 450.48C161.92 464.65 175.92 479.03 200.2 489.91 226.67 501.76 262.02 508.28 299.73 508.28 337.44 508.28 372.8 501.76 399.27 489.91 423.59 479.03 437.54 464.65 437.54 450.48L437.54 173 451.54 173 451.54 450.48C451.54 490.74 384.86 522.28 299.73 522.28Z" fill="#C00000"/><path d="M297.3 260.32C261.181 260.32 231.9 289.601 231.9 325.72 231.9 361.839 261.181 391.12 297.3 391.12 333.419 391.12 362.7 361.839 362.7 325.72 362.706 289.606 333.434 260.326 297.32 260.32 297.313 260.32 297.307 260.32 297.3 260.32ZM341.42 339.17C341.42 343.49 337.55 347.03 332.82 347.03 332.82 347.03 321.93 348.17 297.35 348.17 272.77 348.17 261.87 347 261.87 347 257.14 347 253.27 343.46 253.27 339.14L253.27 310.71C253.27 306.39 257.14 302.85 261.87 302.85L274 302.85 274 323.63 320.72 323.63 320.72 302.85 332.81 302.85C337.54 302.85 341.41 306.39 341.41 310.71Z" fill="#C00000"/></svg>