<svg xmlns="http://www.w3.org/2000/svg" xmlns:xlink="http://www.w3.org/1999/xlink" viewBox="0 0 53 67" fill="#fff" fill-rule="evenodd" stroke="#000" stroke-linecap="round" stroke-linejoin="round"><use xlink:href="#A" x="1" y="1"/><symbol id="A" overflow="visible"><g stroke="none" fill-rule="nonzero"><path d="M13.494.002c-.394.024-.768.176-1.066.436a2.44 2.44 0 0 0-2.74.26c-.74-.25-1.574-.018-2.048.586a3.22 3.22 0 0 0-2.958.892c-2.176-.26-2.808 1.244-2.048 2.656-.334.36-.508.84-.484 1.332s.246.952.614 1.28a2.18 2.18 0 0 0 .718 2.416c-.17.866.232 1.74 1 2.176a2.88 2.88 0 0 0 1.676 2.46 2.39 2.39 0 0 0 2.176 2c.3.96 1.172 1.624 2.176 1.654a10.12 10.12 0 0 0-5.81 10.164l-.412.74c-2.348 1.6-3.888 4.14-4.22 6.96a9.83 9.83 0 0 0 2.48 7.752c.33 1.486.8 2.94 1.35 4.352a10.88 10.88 0 0 0 6.724 8.706c1.96 1.572 4.166 2.808 6.53 3.656a10.66 10.66 0 0 0 7.9 3.546h.13a10.66 10.66 0 0 0 7.9-3.546 22.67 22.67 0 0 0 6.53-3.656 10.88 10.88 0 0 0 6.724-8.706 27.53 27.53 0 0 0 1.35-4.352 9.8 9.8 0 0 0 2.48-7.752 9.83 9.83 0 0 0-4.22-6.96l-.696-.74a10.14 10.14 0 0 0-5.702-10.01 2.35 2.35 0 0 0 2.176-1.654 2.35 2.35 0 0 0 2.176-2 2.87 2.87 0 0 0 1.676-2.46c.768-.434 1.17-1.31 1-2.176a2.18 2.18 0 0 0 .718-2.416c.368-.326.59-.786.614-1.28s-.15-.972-.484-1.332c.76-1.392 0-2.894-2.046-2.656a3.22 3.22 0 0 0-3.068-1.046 1.87 1.87 0 0 0-2.024-.588 2.44 2.44 0 0 0-2.74-.26c-.854-.57-2-.526-2.786.11a2.48 2.48 0 0 0-2.394.412 2.46 2.46 0 0 0-2.698 1.218h-.85a9.64 9.64 0 0 0-3.832 5.506 9.64 9.64 0 0 0-3.832-5.636h-.85A2.46 2.46 0 0 0 17.605.958a2.48 2.48 0 0 0-2.438-.412A5.27 5.27 0 0 0 13.492 0z" fill="#000"/><path d="M8.945 5.94c4.262 1.928 8.162 4.57 11.534 7.812-.96 3.96-6.16 4.156-8.052 4.052a1.42 1.42 0 0 0 .828-.718 21.76 21.76 0 0 1-3.328-.696 1.11 1.11 0 0 0 .892-.52c-1.064-.24-2.08-.66-3.004-1.24a1.7 1.7 0 0 0 1.198-.26 11.62 11.62 0 0 1-2.874-1.786 2.18 2.18 0 0 0 1.218-.196 11.08 11.08 0 0 1-2.306-1.87 1.7 1.7 0 0 0 1.198-.11c-.772-.614-1.44-1.35-2-2.176a1.46 1.46 0 0 0 1.37 0c-.688-.65-1.294-1.4-1.806-2.176a2.88 2.88 0 0 0 1.28 0A6.1 6.1 0 0 0 3.941 3.88a20.49 20.49 0 0 0 2.938 0l-.72-.87a5.86 5.86 0 0 1 3.244.328c.392-.306 0-.696-.5-1.088a11.6 11.6 0 0 1 2.72.676c.412-.392-.306-.74-.65-1.176a6.94 6.94 0 0 1 2.85 1.11c.5-.46 0-.826-.28-1.22a6.96 6.96 0 0 1 2.394 1.546.85.85 0 0 0 .326-.58.84.84 0 0 0-.196-.636c.748.41 1.4.974 1.916 1.654a1.07 1.07 0 0 0 .306-1.176 19.03 19.03 0 0 1 2.176 2.176c.204-.28.324-.612.348-.96 2.046 2 4.94 6.984.74 8.966A39.48 39.48 0 0 0 8.909 5.95zm32.206 0c-4.262 1.928-8.162 4.57-11.534 7.812 1 3.96 6.16 4.156 8.052 4.052a1.42 1.42 0 0 1-.74-.74 21.76 21.76 0 0 0 3.328-.696c-.36-.024-.68-.22-.87-.52 1.064-.24 2.08-.66 3.004-1.24a1.7 1.7 0 0 1-1.218-.26 11.62 11.62 0 0 0 2.874-1.786 2.18 2.18 0 0 1-1.218-.196 11.08 11.08 0 0 0 2.306-1.87 1.7 1.7 0 0 1-1.198-.11c.772-.614 1.44-1.35 2-2.176a1.46 1.46 0 0 1-1.37 0c.688-.65 1.294-1.4 1.806-2.176a2.88 2.88 0 0 1-1.28 0 6.1 6.1 0 0 1 1.152-2.176 20.49 20.49 0 0 1-2.938 0l.74-.76a5.86 5.86 0 0 0-3.244.328c-.392-.306 0-.696.5-1.088a11.6 11.6 0 0 0-2.72.676c-.5-.5.196-.826.566-1.26a6.94 6.94 0 0 0-2.85 1.11c-.5-.46 0-.826.28-1.22a6.96 6.96 0 0 0-2.394 1.546.87.87 0 0 1-.34-.576c-.032-.23.04-.46.184-.64-.748.41-1.4.974-1.916 1.654a1.07 1.07 0 0 1-.306-1.176 19.03 19.03 0 0 0-2.176 2.176c-.204-.28-.324-.612-.348-.96-2.046 2-4.94 6.984-.74 8.966a39.39 39.39 0 0 1 12.556-6.68z" fill="#75a928"/><path d="M32.403 46.35a7.01 7.01 0 0 1-7.224 6.748 7.01 7.01 0 0 1-7.312-6.68 7.01 7.01 0 0 1 7.224-6.748 7.01 7.01 0 0 1 7.312 6.68zM20.913 27.2a7.16 7.16 0 0 1 1.218 9.988 7.23 7.23 0 0 1-9.706 2.85 7.16 7.16 0 0 1-1.218-9.988 7.23 7.23 0 0 1 9.706-2.85zm8.14-.37a7.16 7.16 0 0 0-1.218 9.988 7.23 7.23 0 0 0 9.706 2.85 7.16 7.16 0 0 0 1.218-9.988 7.23 7.23 0 0 0-9.706-2.85zM5.857 30.466c3.264-.87 1.088 13.47-1.546 12.294a7.76 7.76 0 0 1-2.3-6.534c.3-2.418 1.728-4.552 3.844-5.76zm37.6-.22c-3.264-.87-1.088 13.47 1.546 12.294 1.752-1.694 2.6-4.116 2.3-6.534s-1.728-4.552-3.844-5.76zm-11.054-10.66c5.614-.96 10.294 2.394 10.1 8.488-.176 2.394-12.1-8.16-10.1-8.488zm-15.544-.176c-5.614-.96-10.294 2.394-10.1 8.488.176 2.326 12.164-8.14 10.1-8.488zM24.937 18c-3.352 0-6.5 2.48-6.5 3.98s2.656 3.676 6.5 3.72 6.5-1.48 6.5-3.352S27.763 18 24.803 18zm.22 37.186c2.916-.13 6.832.936 6.852 2.35S28.461 62 24.953 61.888s-7.16-2.96-7.114-4.052c0-1.588 4.352-2.826 7.312-2.74zm-10.796-8.4c2.176 2.5 3 6.92 1.28 8.2s-5.636.588-8.466-3.48c-1.894-3.44-1.65-6.9-.306-7.988 2-1.22 5.114.436 7.508 3.2zm21.176-.8c-2.176 2.634-3.5 7.44-1.87 8.988 1.568 1.2 5.79 1.046 8.9-3.286 1.856-2.7 1.94-6.24.22-9.03-1.916-1.48-4.676.412-7.248 3.326z" fill="#bc1142"/></g></symbol></svg>