<svg width="63" height="58" xmlns="http://www.w3.org/2000/svg" xmlns:xlink="http://www.w3.org/1999/xlink" overflow="hidden"><defs><clipPath id="clip0"><rect x="537" y="278" width="63" height="58"/></clipPath><clipPath id="clip1"><rect x="538" y="279" width="62" height="56"/></clipPath><clipPath id="clip2"><rect x="538" y="279" width="62" height="56"/></clipPath><clipPath id="clip3"><rect x="538" y="279" width="62" height="56"/></clipPath></defs><g clip-path="url(#clip0)" transform="translate(-537 -278)"><g clip-path="url(#clip1)"><g clip-path="url(#clip2)"><g clip-path="url(#clip3)"><path d="M34.0853 35.9707C34.0107 35.868 33.8613 35.84 33.7493 35.924 33.7027 35.9613 33.6653 36.0173 33.656 36.0733L33.376 37.6787C32.2187 37.352 30.3987 36.568 28.448 34.636 29.8667 33.488 31.5373 32.7227 33.3293 32.3867L33.6187 34.0947C33.6373 34.188 33.7027 34.2627 33.796 34.2813 33.8147 34.2813 33.8333 34.2907 33.852 34.2907 33.9267 34.2907 33.992 34.2533 34.0387 34.1973L36.036 31.5467C36.0733 31.4907 36.092 31.4253 36.0827 31.36 36.0733 31.2947 36.036 31.2387 35.98 31.2013L33.2267 29.3627C33.1147 29.288 32.9653 29.316 32.9 29.428 32.8627 29.4747 32.8533 29.54 32.8627 29.596L33.1147 31.0893C31.0427 31.4627 29.1013 32.3773 27.4867 33.7307 25.8907 32.396 23.9867 31.4813 21.9427 31.0987L22.204 29.5867C22.2227 29.456 22.1387 29.3347 22.008 29.316 21.952 29.3067 21.8867 29.316 21.84 29.3533L19.0867 31.192C18.9747 31.2667 18.9467 31.416 19.0213 31.528L19.0307 31.5373 21.028 34.188C21.0747 34.244 21.14 34.2813 21.2147 34.2813 21.2333 34.2813 21.252 34.2813 21.2707 34.272 21.364 34.2533 21.4293 34.1787 21.448 34.0853L21.7373 32.3867C23.5013 32.7227 25.144 33.488 26.544 34.6173 24.6493 36.484 22.8667 37.2867 21.6907 37.632L21.4107 36.0547C21.392 35.924 21.2613 35.84 21.1307 35.8587 21.0747 35.868 21.0187 35.9053 20.9813 35.952L19.0027 38.612C18.9187 38.7147 18.9467 38.8733 19.0493 38.948L19.0587 38.9573 21.8307 40.7867C21.9427 40.8613 22.0827 40.824 22.1573 40.7213 22.1947 40.6747 22.204 40.6093 22.1947 40.5533L21.9053 38.9293C23.2587 38.556 25.3213 37.66 27.496 35.504 29.708 37.7067 31.808 38.5933 33.1613 38.9573L32.8813 40.5627C32.8533 40.6933 32.9467 40.8147 33.068 40.8427 33.0773 40.8427 33.096 40.8427 33.1147 40.8427 33.1613 40.8427 33.208 40.8333 33.2453 40.8053L36.0173 38.976C36.1293 38.9013 36.1573 38.752 36.0827 38.64L36.0733 38.6307 34.0853 35.9707Z" fill="#C00000" fill-rule="nonzero" fill-opacity="1" transform="matrix(1.10714 0 0 1 538 279)"/><path d="M40.32 6.57067C36.904 5.04 32.368 4.2 27.5427 4.2 22.7173 4.2 18.1813 5.04 14.7653 6.57067 11.1533 8.19467 9.16533 10.416 9.16533 12.8333 9.16533 12.9267 9.17467 13.0293 9.184 13.1227L9.16533 13.1227 9.16533 43.26C9.16533 45.6773 11.1533 47.8987 14.7653 49.5227 18.1813 51.0533 22.7173 51.8933 27.5427 51.8933 32.368 51.8933 36.904 51.0533 40.32 49.5227 43.932 47.8987 45.92 45.6773 45.92 43.26L45.92 12.796C45.9013 10.388 43.9133 8.176 40.32 6.57067ZM27.5427 50.4187C22.932 50.4187 18.6107 49.616 15.372 48.16 12.3667 46.816 10.64 45.024 10.64 43.26L10.64 16.2867C11.5827 17.332 12.9733 18.2747 14.7653 19.0773 18.1813 20.608 22.7173 21.448 27.5427 21.448 32.34 21.448 36.876 20.608 40.32 19.0773 42.0933 18.284 43.484 17.3413 44.4453 16.2867L44.4453 43.26C44.4453 45.0333 42.7187 46.816 39.7133 48.16 36.4747 49.616 32.1533 50.4187 27.5427 50.4187ZM39.7133 17.7333C36.4653 19.1893 32.144 19.992 27.5427 19.992 22.932 19.992 18.6107 19.1893 15.372 17.7333 12.3667 16.38 10.64 14.588 10.64 12.8333 10.64 11.06 12.3667 9.27733 15.372 7.93333 18.6013 6.47733 22.932 5.67467 27.5427 5.67467 32.1533 5.67467 36.4747 6.47733 39.7133 7.93333 42.7187 9.27733 44.4453 11.0693 44.4453 12.8333 44.4453 14.5973 42.7187 16.3893 39.7133 17.7333Z" fill="#C00000" fill-rule="nonzero" fill-opacity="1" transform="matrix(1.10714 0 0 1 538 279)"/></g></g></g></g></svg>